<svg width="24" height="20" viewBox="0 0 24 20" fill="none" xmlns="http://www.w3.org/2000/svg">
<g clip-path="url(#clip0_526_1617)">
<path d="M23.1348 4.31076C15.1419 2.90725 8.63829 6.01502 2.38293 10.0752C4.81557 6.46614 12.1135 1.25311 16.1348 0.250605C19.61 -0.601525 21.7944 0.601482 23.1348 4.31076Z" fill="#FF7900"/>
<path d="M22.8867 8.57143C22.5888 10.8271 21.993 11.7293 19.6101 11.1278C14.3973 9.72431 9.13481 10.2256 3.97165 11.7293C3.17732 11.98 2.43264 12.1805 1.63831 12.2306C8.24119 8.47118 15.0923 6.06516 22.8867 8.57143Z" fill="#240046"/>
<path d="M0.64534 9.27319C-0.297928 6.41605 -0.347574 3.90978 1.63825 1.80452C3.4255 -0.100243 6.3546 -0.400995 9.2837 0.952388C6.45389 3.70928 3.67373 6.41605 0.64534 9.27319Z" fill="#240046"/>
<path d="M18.8157 14.8371C17.8724 16.6917 16.9292 16.7419 15.1916 16.1905C11.071 14.8872 6.80143 14.0852 3.57446 13.3333C7.94329 12.5815 13.3547 12.6817 18.8157 14.8371Z" fill="#FF7900"/>
<path d="M5.65967 15.2381C8.39018 16.391 11.0711 17.594 13.9505 18.797C11.5179 21.203 8.68806 20 5.65967 15.2381Z" fill="#240046"/>
</g>
<defs>
<clipPath id="clip0_526_1617">
<rect width="23.1349" height="20" fill="white"/>
</clipPath>
</defs>
</svg>
